<svg height="496pt" viewBox="0 0 496 496" width="496pt" xmlns="http://www.w3.org/2000/svg"><path d="m480 248-40 56-40-56h24v-152h32v152zm0 0" fill="#b4dd7f"/><path d="m384 488h-104l-16-96 16.398438-32.878906 23.601562 16.878906 7.601562-75.921875 88.71875 23.363281c28.078126 7.4375 47.679688 32.796875 47.679688 61.917969v102.640625zm0 0" fill="#ffeaa7"/><path d="m112 488h-64v-102.640625c0-29.121094 19.601562-54.480469 47.679688-61.917969l88.71875-23.363281 7.601562 75.921875 23.601562-16.878906 16.398438 32.878906-16 96zm0 0" fill="#ffeaa7"/><path d="m264 392 16 96h-64l16-96zm0 0" fill="#ff826e"/><path d="m280.398438 359.121094-16.398438 32.878906h-32l-16.398438-32.878906 32.398438-23.121094zm0 0" fill="#ff826e"/><path d="m311.601562 300.078125-7.601562 75.921875-23.601562-16.878906-32.398438-23.121094 48-40zm0 0" fill="#fcd770"/><path d="m248 336-32.398438 23.121094-23.601562 16.878906-7.601562-75.921875 15.601562-4.078125zm0 0" fill="#fcd770"/><path d="m248 216.320312v-15.039062c0-10.800781 5.359375-20.882812 14.398438-26.882812 6-4 9.601562-10.71875 9.601562-18 0-2.878907-.558594-5.757813-1.761719-8.476563l-19.597656-45.84375c-1.761719-4-2.640625-8.316406-2.640625-12.71875v-81.359375h128v103.039062c0 63.28125-30.71875 122.160157-81.679688 158.480469-5.199218 3.761719-10.71875 7.28125-16.398437 10.558594-9.121094 5.203125-19.441406 7.921875-29.921875 7.921875zm0 0" fill="#aab2bd"/><path d="m296 272v24l-48 40-48-40v-24l1.679688-2.480469c5.199218 3.761719 10.71875 7.28125 16.398437 10.558594 9.121094 5.203125 19.441406 7.921875 29.921875 7.921875s20.800781-2.71875 29.921875-7.921875c5.679687-3.277344 11.199219-6.796875 16.398437-10.558594zm0 0" fill="#f0d0b4"/><path d="m248 216.320312v71.679688c-10.480469 0-20.800781-2.71875-29.921875-7.921875-5.679687-3.277344-11.199219-6.796875-16.398437-10.558594-22.878907-16.238281-41.679688-37.039062-55.359376-60.800781-16.960937-29.199219-26.320312-62.796875-26.320312-97.679688v-103.039062h128v81.359375c0 4.402344.878906 8.71875 2.640625 12.71875l19.597656 45.84375c1.203125 2.71875 1.761719 5.597656 1.761719 8.476563 0 7.28125-3.601562 14-9.601562 18-9.039063 6-14.398438 16.082031-14.398438 26.882812zm0 0" fill="#e6e9ed"/><path d="m402.328125 315.703125-98.328125-25.871094v-17.503906c49.894531-38.007813 80-97.6875 80-161.320313v-111.007812h-272v111c0 63.632812 30.105469 123.3125 80 161.320312v17.503907l-98.328125 25.871093c-31.601563 8.328126-53.671875 36.960938-53.671875 69.640626v110.664062h416v-110.664062c0-32.679688-22.070312-61.3125-53.671875-69.632813zm-204.28125-10.917969 36.875 30.726563-36.328125 25.953125-5.539062-55.359375zm40.730469 95.214844h18.445312l13.335938 80h-45.117188zm20.277344-16h-22.109376l-11.152343-22.304688 22.207031-15.863281 22.207031 15.863281zm2.023437-48.488281 36.875-30.726563 4.992187 1.3125-5.539062 55.359375zm106.921875-224.511719c0 66.832031-36.046875 128.953125-94.078125 162.113281-5.539063 3.167969-11.648437 5.152344-17.921875 6.09375v-53.65625c26.609375 5.417969 32.007812 23.554688 32.238281 24.386719l15.515625-3.882812c-.347656-1.382813-8.195312-30.414063-47.761718-36.773438v-8c0-8.144531 4.039062-15.695312 10.816406-20.210938 8.261718-5.503906 13.191406-14.710937 13.191406-24.636718 0-4.035156-.808594-7.96875-2.398438-11.664063l-19.632812-45.824219c-1.304688-3.050781-1.96875-6.273437-1.96875-9.578124v-73.367188h112zm-240 0v-95h112v73.367188c0 5.480468 1.097656 10.816406 3.257812 15.871093l19.636719 45.832031c.738281 1.707032 1.105469 3.515626 1.105469 5.363282 0 4.558594-2.265625 8.789062-6.0625 11.328125-11.234375 7.484375-17.9375 20.023437-17.9375 33.519531v6.71875c-40.664062 0-47.96875-24.960938-48.257812-26.023438l-15.503907 3.96875c.386719 1.550782 10.128907 38.054688 63.761719 38.054688v55.214844c-6.273438-.941406-12.382812-2.925782-17.921875-6.09375-58.03125-33.160156-94.078125-95.28125-94.078125-162.121094zm86.144531 176.007812c10.289063 5.878907 22 8.992188 33.855469 8.992188s23.566406-3.113281 33.855469-8.992188c2.097656-1.199218 4.097656-2.519531 6.144531-3.785156v9.035156l-40 33.335938-40-33.335938v-9.035156c2.039062 1.265625 4.039062 2.585938 6.144531 3.785156zm-158.144531 98.328126c0-25.414063 17.167969-47.6875 41.753906-54.152344l79.628906-20.960938 8.03125 80.3125 27.195313-19.421875 11.070313 22.144531-14.457032 86.742188h-89.222656v-112h-16v112h-48zm384 94.664062h-48v-112h-16v112h-89.222656l-14.457032-86.742188 11.070313-22.144531 27.195313 19.421875 8.03125-80.3125 79.628906 20.960938c24.585937 6.464844 41.753906 28.738281 41.753906 54.152344zm0 0"/><path d="m208 104h16c0-22.054688-17.945312-40-40-40s-40 17.945312-40 40h16c0-13.230469 10.769531-24 24-24s24 10.769531 24 24zm0 0"/><path d="m312 112c22.054688 0 40-17.945312 40-40h-16c0 13.230469-10.769531 24-24 24s-24-10.769531-24-24h-16c0 22.054688 17.945312 40 40 40zm0 0"/><path d="m6.0625 62.632812 11.3125 11.3125 14.625-14.632812v20.6875h16v-20.6875l14.625 14.632812 11.3125-11.3125-14.625-14.632812h20.6875v-16h-20.6875l14.625-14.632812-11.3125-11.3125-14.625 14.632812v-20.6875h-16v20.6875l-14.625-14.632812-11.3125 11.3125 14.625 14.632812h-20.6875v16h20.6875zm17.9375-16.007812v-13.25l9.375-9.375h13.25l9.375 9.375v13.25l-9.375 9.375h-13.25zm0 0"/><path d="m64 160h16v16h-16zm0 0"/><path d="m48 176h16v16h-16zm0 0"/><path d="m64 192h16v16h-16zm0 0"/><path d="m80 176h16v16h-16zm0 0"/><path d="m16 272h16v16h-16zm0 0"/><path d="m0 288h16v16h-16zm0 0"/><path d="m16 304h16v16h-16zm0 0"/><path d="m32 288h16v16h-16zm0 0"/><path d="m448 96h16v16h-16zm0 0"/><path d="m448 128h16v16h-16zm0 0"/><path d="m495.542969 240h-31.542969v-80h-16v96h16.457031l-24.457031 34.230469-24.457031-34.230469h16.457031v-160h-16v144h-31.542969l55.542969 77.769531zm0 0"/></svg>